<svg xmlns="http://www.w3.org/2000/svg" version="1.1" xmlns:xlink="http://www.w3.org/1999/xlink" xmlns:svgjs="http://svgjs.dev/svgjs" width="100%" height="100%" viewBox="0 0 1000 600"><rect width="1000" height="600" x="0" y="0" fill="transparent"/><g><rect width="333.3333333333333" height="333.3333333333333" rx="13.333333333333334" ry="13.333333333333334" y="173.62893079696897" fill="#3297a8" transform="matrix(0.8255907378227239,0,0,0.8255907378227235,0,19.055078948105802)" x="151.40673828125"/><path d="M309.76470874263646 415.2956026142361L309.76470874263646 415.2956026142361Q300.3028517678425 415.2956026142361 291.52106576311195 413.9354606741095Q282.7392797583814 412.6048870370291 276.50036781562665 408.6427344288341L276.50036781562665 408.6427344288341L276.50036781562665 379.01529477651076Q283.44891903149096 381.20334920193176 289.4512845498758 381.76514695981024Q295.42408176521445 382.3269447176886 299.7706223130104 382.3269447176886L299.7706223130104 382.3269447176886Q304.47198249736107 382.3269447176886 307.1035614684756 380.40500501968353Q309.76470874263646 378.48306532167857 311.12485068276305 375.46709841096305Q312.4554243198435 372.4806998032937 312.780675653352 368.66638871032984Q313.0763586838143 364.8816459204124 313.0763586838143 361.126471433541L313.0763586838143 361.126471433541L313.0763586838143 265.2956012607066L359.64643598162803 265.2956012607066L359.64643598162803 367.6906347098043Q359.64643598162803 380.1684585953138 355.29989543383203 389.1572227213679Q350.9237865829899 398.1459868474221 343.91609876103314 403.97094254752966Q336.8788426360302 409.7958982476371 327.890078509976 412.5457504309366Q318.9013143839218 415.2956026142361 309.76470874263646 415.2956026142361Z " fill="#FFFF" transform="matrix(0.8255907378227239,0,0,0.8255907378227235,0,19.055078948105802)"/><path d="M590.8867063254884 383.1339113473712L590.8867063254884 383.1339113473712Q584.3975892228966 383.1339113473712 578.3748774120536 382.2011007638736Q572.3521656012106 381.2885686713217 568.0734040116891 378.5712508846114L568.0734040116891 378.5712508846114L568.0734040116891 358.2522029571209Q572.838849383905 359.7528112870952 576.9553830458617 360.13810261506165Q581.0516382168728 360.523393943028 584.0325763858758 360.523393943028L584.0325763858758 360.523393943028Q587.256856446226 360.523393943028 589.0616421403845 359.20529203156406Q590.8867063254884 357.8871901201001 591.819516908986 355.8187840436489Q592.7320490015379 353.7706564581434 592.9551124019395 351.15473112616104Q593.1578973113956 348.55908428512436 593.1578973113956 345.9837159350332L593.1578973113956 345.9837159350332L593.1578973113956 280.2611267803458L625.0965205507144 280.2611267803458L625.0965205507144 350.4855409249563Q625.0965205507144 359.04306410399926 622.1155823817114 365.2077253514614Q619.1143657217626 371.3723865989236 614.3083633676556 375.3672493152067Q609.4820825226029 379.36211203148974 603.3174212751408 381.2480116894305Q597.1527600276786 383.1339113473712 590.8867063254884 383.1339113473712ZM687.4934371903236 383.1339113473712L687.4934371903236 383.1339113473712Q679.0778634478999 383.1339113473712 672.5076323815257 381.5724675445601Q665.9576798060972 379.9907452508034 661.0300065063166 377.21259199125626Q656.1226116974815 374.4344387317091 652.654989745784 370.62208243393644Q649.2076462850321 366.80972613616376 647.0581262447986 362.3079011462407Q644.9288846955106 357.82635464726326 643.9555171301218 352.8378458746459Q643.0024280556787 347.8493371020284 643.0024280556787 342.7188788927918L643.0024280556787 342.7188788927918Q643.0024280556787 337.6492561563919 643.9555171301218 332.70130436566575Q644.9288846955106 327.7330740839938 647.0581262447986 323.2109706031252Q649.2076462850321 318.68886712225657 652.6144327638928 314.8765108244839Q656.0414977336991 311.06415452671126 660.9894495244253 308.2454442852729Q665.9576798060972 305.4267340438346 672.5076323815257 303.82473325913224Q679.0778634478999 302.2227324744299 687.4934371903236 302.2227324744299L687.4934371903236 302.2227324744299Q695.8887324418018 302.2227324744299 702.4589635081759 303.82473325913224Q709.0089160836045 305.4267340438346 713.9771463652763 308.2454442852729Q718.9250981560026 311.06415452671126 722.3521631258089 314.8765108244839Q725.7589496046695 318.68886712225657 727.9084696449031 323.2109706031252Q730.037711194191 327.7330740839938 731.0110787595798 332.70130436566575Q731.964167834023 337.6492561563919 731.964167834023 342.7188788927918L731.964167834023 342.7188788927918Q731.964167834023 347.8493371020284 731.0110787595798 352.8378458746459Q730.037711194191 357.82635464726326 727.9084696449031 362.3079011462407Q725.7589496046695 366.80972613616376 722.3116061439176 370.62208243393644Q718.8439841922202 374.4344387317091 713.9365893833851 377.21259199125626Q709.0089160836045 379.9907452508034 702.4589635081759 381.5724675445601Q695.8887324418018 383.1339113473712 687.4934371903236 383.1339113473712ZM673.8054558020441 342.7188788927918L673.8054558020441 342.7188788927918Q673.8054558020441 346.55151368151 674.51520298514 350.22192054266355Q675.224950168236 353.91260589476263 676.8269509529383 356.7921516090377Q678.4289517376407 359.6716973233128 681.0245985786775 361.4156475446344Q683.6405239106597 363.17987625690154 687.4934371903236 363.17987625690154L687.4934371903236 363.17987625690154Q691.3260719790419 363.17987625690154 693.9419973110242 361.4156475446344Q696.5376441520609 359.6716973233128 698.1396449367633 356.7921516090377Q699.7416457214656 353.91260589476263 700.4513929045617 350.22192054266355Q701.1814185786031 346.55151368151 701.1814185786031 342.7188788927918L701.1814185786031 342.7188788927918Q701.1814185786031 338.8659656131279 700.4513929045617 335.1955587519744Q699.7416457214656 331.52515189082095 698.1396449367633 328.6253276856002Q696.5376441520609 325.74578197132513 693.9419973110242 323.96127476811245Q691.3260719790419 322.17676756489965 687.4934371903236 322.17676756489965L687.4934371903236 322.17676756489965Q683.6405239106597 322.17676756489965 681.0245985786775 323.96127476811245Q678.4289517376407 325.74578197132513 676.8269509529383 328.6253276856002Q675.224950168236 331.52515189082095 674.51520298514 335.1955587519744Q673.8054558020441 338.8659656131279 673.8054558020441 342.7188788927918ZM805.250634111419 383.1339113473712L805.250634111419 383.1339113473712Q801.4179993227007 383.1339113473712 797.6259215158736 382.1402652910369Q793.8541221999922 381.14661923470254 790.467614212077 379.24044108581614Q787.081106224162 377.3545414278754 784.3029529646149 374.6169451502196Q781.5247997050677 371.859070381618 779.5983430652358 368.3711699389749L779.5983430652358 368.3711699389749L779.5983430652358 381.06550527092014L748.7953153188704 381.06550527092014L748.7953153188704 271.5616541646837L779.5983430652358 271.5616541646837L779.5983430652358 314.69400440597354Q781.2409008318293 311.97668661926315 784.0798895642132 309.7054956333561Q786.9391567875427 307.4140261565034 790.5081711939682 305.7511898989642Q794.0569071094482 304.06807515047944 798.1328837895136 303.13526456698185Q802.1885819786335 302.2227324744299 806.2645586586989 302.2227324744299L806.2645586586989 302.2227324744299Q812.6725617975084 302.2227324744299 818.7358305902425 304.35197402371784Q824.7990993829768 306.5014940639513 829.5037092823558 311.30749641805846Q834.2083191817349 316.1134987721654 837.0878648960099 323.8598823133844Q839.9674106102849 331.5859873636577 839.9674106102849 342.7188788927918L839.9674106102849 342.7188788927918Q839.9674106102849 353.26369418450344 837.1689788597922 360.8884067800488Q834.350268618354 368.51311937559416 829.6051017370838 373.481349657266Q824.8599348558135 378.42930144799215 818.5533241717321 380.78160639768174Q812.2467134876507 383.1339113473712 805.250634111419 383.1339113473712ZM809.1846613548652 342.77971436562854L809.1846613548652 342.77971436562854Q809.1846613548652 336.939508973296 807.8868379343469 332.98520323890415Q806.609293004774 329.0308975045122 804.4800514554862 326.5974785910403Q802.3305314152527 324.184338168514 799.6537706104335 323.15013513028845Q796.99728829656 322.1159320920629 794.1988565460673 322.1159320920629L794.1988565460673 322.1159320920629Q791.4207032865203 322.1159320920629 788.8250564454835 323.15013513028845Q786.2294096044468 324.184338168514 784.1610035279956 326.5974785910403Q782.0925974515445 329.0308975045122 780.8353310129174 332.98520323890415Q779.5983430652358 336.939508973296 779.5983430652358 342.7188788927918L779.5983430652358 342.7188788927918Q779.5983430652358 348.55908428512436 780.8353310129174 352.5133900195163Q782.0925974515445 356.4676957539081 784.1610035279956 358.8605576854888Q786.2294096044468 361.2534196170696 788.8656134273747 362.28762265529514Q791.5018172503027 363.3218256935207 794.2799705098497 363.3218256935207L794.2799705098497 363.3218256935207Q797.0581237693968 363.3218256935207 799.7348845742159 362.28762265529514Q802.4116453790351 361.2534196170696 804.5003299464319 358.8605576854888Q806.609293004774 356.4676957539081 807.8868379343469 352.5539470014075Q809.1846613548652 348.6199197579612 809.1846613548652 342.77971436562854ZM857.5083052782285 381.06550527092014L857.5083052782285 304.14918911426184L888.3113330245939 304.14918911426184L888.3113330245939 381.06550527092014L857.5083052782285 381.06550527092014ZM872.9807938697207 288.3116876857488L872.9807938697207 288.3116876857488Q868.9250956806007 288.3116876857488 865.3560812741754 287.4599910660336Q861.7870668677499 286.6082944463184 859.1914200267132 285.1076861163441Q856.5957731856764 283.6070777863697 855.0546078738109 281.47783623708176Q853.5134425619453 279.3283161968483 853.5134425619453 276.77322633770274L853.5134425619453 276.77322633770274Q853.5134425619453 273.91395911437326 855.0140508919197 271.7441605831941Q856.514659221894 269.574362052015 859.1508630448219 268.13458919487744Q861.7870668677499 266.71509482868544 865.3560812741754 266.0053476455895Q868.9250956806007 265.29560046249355 873.0619078335031 265.29560046249355L873.0619078335031 265.29560046249355Q877.1987199864054 265.29560046249355 880.7880128837766 266.0053476455895Q884.3975842720932 266.71509482868544 887.0337880950211 268.13458919487744Q889.669991917949 269.574362052015 891.1706002479233 271.7441605831941Q892.6712085778977 273.91395911437326 892.6712085778977 276.77322633770274L892.6712085778977 276.77322633770274Q892.6712085778977 279.3283161968483 891.1300432660322 281.47783623708176Q889.5888779541666 283.6070777863697 886.9526741312387 285.1076861163441Q884.3164703083108 286.6082944463184 880.7271774109397 287.4599910660336Q877.117606022623 288.3116876857488 872.9807938697207 288.3116876857488ZM945.9225258010415 322.1159320920629L945.9225258010415 381.06550527092014L915.1194980546761 381.06550527092014L915.1194980546761 322.1159320920629L902.8510110325886 322.1159320920629L902.8510110325886 304.14918911426184L914.977548618057 304.14918911426184Q914.977548618057 295.36860253481734 917.3298535677465 288.8592069412799Q919.682158517436 282.32953285679696 924.0217555797943 277.96965730349314Q928.3816311330982 273.63006024113486 934.5462923805603 271.4602617099557Q940.7109536280226 269.270184687831 948.4167801873504 269.270184687831L948.4167801873504 269.270184687831Q954.6828338895405 269.270184687831 960.0363554991787 270.6288435811862Q965.3695986178712 271.9875024745413 969.8714236077943 273.83284515059086L969.8714236077943 273.83284515059086L967.5799541309417 292.16460096541266Q963.463420468985 291.1709549090783 960.7055457003835 290.4814862169279Q957.9679494227277 289.8122960157231 955.3925810726365 289.8122960157231L955.3925810726365 289.8122960157231Q952.1277440303949 289.8122960157231 950.2215658815086 291.02900547245906Q948.335666223568 292.24571492919506 947.3825771491247 294.23300704186374Q946.4092095837359 296.22029915453254 946.1658676923887 298.8362244865149Q945.9225258010415 301.43187132755156 945.9225258010415 304.14918911426184L945.9225258010415 304.14918911426184L967.4380046943224 304.14918911426184Q966.4443586379881 308.8537990136409 965.8765608915113 313.19339607599915Q965.3087631450345 317.55327162930297 965.3087631450345 322.1159320920629L965.3087631450345 322.1159320920629L945.9225258010415 322.1159320920629ZM1029.0440601870532 352.8378458746459L1029.0440601870532 304.14918911426184L1059.8470879334186 304.14918911426184L1059.8470879334186 370.29762657880684Q1059.8470879334186 378.34818748420986 1058.204530166825 384.77646911396477Q1056.5619724002313 391.1844722527741 1053.6418697040654 396.2135380072828Q1050.721767007899 401.2426037617915 1046.6863473097246 404.8318966591625Q1042.6509276115503 408.4414680474792 1037.804368275552 410.7532160152776Q1032.957808939554 413.0852424740214 1027.4826163842422 414.1802809850838Q1021.9871453379847 415.29559798709175 1016.2077754184888 415.29559798709175L1016.2077754184888 415.29559798709175Q1008.4411133863242 415.29559798709175 1000.5933373903773 414.5047368402134Q992.7455613944304 413.71387569333507 986.2767227827842 411.86853301728553L986.2767227827842 411.86853301728553L988.4059643320721 393.9017900394845Q996.1726263642366 395.74713271553406 1001.424755519147 396.254094989174Q1006.6566061831116 396.7407787718684 1009.1508605694203 396.7407787718684L1009.1508605694203 396.7407787718684Q1016.2888893822712 396.7407787718684 1020.5270939899016 394.6723726954172Q1024.765298597532 392.6242451099118 1026.9756541106021 388.34548352039025L1026.9756541106021 388.34548352039025Q1028.0504141307188 386.19596348015676 1028.7196043319236 384.12755740370557Q1029.3887945331285 382.0591513272545 1029.8349213339316 379.84879581418414Q1030.260769643789 377.6384403011138 1030.4027190804086 375.2455783695331Q1030.5446685170277 372.872994928898 1030.5446685170277 369.9528922327317L1030.5446685170277 369.9528922327317Q1029.0440601870532 372.64993152849644 1026.468691836962 374.7183376049475Q1023.9136019778165 376.7867436813986 1020.7704358812488 378.2062380475906Q1017.6272697846808 379.64601090472814 1014.179926323929 380.3557580878241Q1010.7123043722314 381.06550527092014 1007.4474673299899 381.06550527092014L1007.4474673299899 381.06550527092014Q1001.7289328833309 381.06550527092014 996.5984746740943 379.32155504959854Q991.4680164648577 377.57760482827706 987.5137107304657 373.8260840033411Q983.5594049960738 370.09484166935084 981.2476570282756 364.2343577860726Q978.9156305695316 358.39415239374006 978.9156305695316 350.26247752455475L978.9156305695316 350.26247752455475L978.9156305695316 304.14918911426184L1006.2915933460907 304.14918911426184L1006.2915933460907 349.41078090483956Q1006.2915933460907 352.97979531126504 1007.3257963843163 355.5754421523017Q1008.3599994225418 358.1710889933385 1010.0431141710266 359.85420374182326Q1011.7262289195114 361.537318490308 1013.8554704687994 362.3484581281319Q1016.0049905090328 363.17987625690154 1018.2153460221031 363.17987625690154L1018.2153460221031 363.17987625690154Q1020.2634736076087 363.17987625690154 1022.230487229332 362.49040756475114Q1024.1975008510549 361.8212173635464 1025.6981091810294 360.50311545208234Q1027.1784390200582 359.1850135406184 1028.1112496035557 357.25855690078646Q1029.0440601870532 355.3321002609545 1029.0440601870532 352.8378458746459L1029.0440601870532 352.8378458746459Z " fill="#3297a8" transform="matrix(0.8255907378227239,0,0,0.8255907378227235,0,19.055078948105802)"/></g></svg>